<?xml version="1.0" standalone="no" ?>
<!DOCTYPE svg PUBLIC "-//W3C//DTD SVG 1.1//EN" "http://www.w3.org/Graphics/SVG/1.1/DTD/svg11.dtd">
<svg width="253px" height="120px" viewBox="0 0 253 120" style="background-color: #ffffff00" xmlns="http://www.w3.org/2000/svg" xmlns:xlink="http://www.w3.org/1999/xlink" version="1.1" >
<path stroke="none" fill="#000000" transform="matrix(0.0666667 0 0 0.0666667 -91.6 -453)" d="M 3261.93,7850.13 L 3273.83,7857 L 3253.35,7882.57 L 2775,8158.75 L 2775,8131.25 L 3261.93,7850.13 Z " />
<path stroke="none" fill="#000000" transform="matrix(0.0666667 0 0 0.0666667 -91.6 -453)" d="M 3772.66,8131.25 L 3772.66,8158.75 L 3281.9,7875.41 L 3273.83,7857 L 3285.74,7850.13 L 3772.66,8131.25 Z " />
<path stroke="none" fill="#000000" transform="matrix(0.0666667 0 0 0.0666667 -91.6 -453)" d="M 4271.49,7843.25 L 4271.49,7870.75 L 3772.66,8158.75 L 3772.66,8131.25 L 4271.49,7843.25 Z " />
<text x="0" y="0" stroke="none" fill="#ff0000" transform="matrix(0.0666667 0 0 0.0666667 218.121 98.4)" font-style="normal" font-weight="normal" font-size="320px" font-family="Arial" >
OH</text>
<path stroke="none" fill="#000000" transform="matrix(0.0666667 0 0 0.0666667 -91.6 -453)" d="M 4655.18,8064.78 L 4643.28,8085.4 L 4271.49,7870.75 L 4271.49,7843.25 L 4655.18,8064.78 Z " />
<text x="0" y="0" stroke="none" fill="#ff0000" transform="matrix(0.0666667 0 0 0.0666667 184.866 40.8)" font-style="normal" font-weight="normal" font-size="320px" font-family="Arial" >
O</text>
<path stroke="none" fill="#000000" transform="matrix(0.0666667 0 0 0.0666667 -91.6 -453)" d="M 4207.75,7442.08 L 4231.56,7442.08 L 4231.56,7886.93 L 4207.75,7886.93 L 4207.75,7442.08 Z " />
<path stroke="none" fill="#000000" transform="matrix(0.0666667 0 0 0.0666667 -91.6 -453)" d="M 4311.43,7442.08 L 4335.24,7442.08 L 4335.24,7886.93 L 4311.43,7886.93 L 4311.43,7442.08 Z " />
<path stroke="none" fill="#000000" transform="matrix(0.0666667 0 0 0.0666667 -91.6 -453)" d="M 2276.17,7870.75 L 2276.17,7843.25 L 2775,8131.25 L 2775,8158.75 L 2276.17,7870.75 Z " />
<text x="0" y="0" stroke="none" fill="#ff0000" transform="matrix(0.0666667 0 0 0.0666667 3.18305 98.4)" font-style="normal" font-weight="normal" font-size="320px" font-family="Arial" >
HO</text>
<path stroke="none" fill="#000000" transform="matrix(0.0666667 0 0 0.0666667 -91.6 -453)" d="M 1905.06,8085.01 L 1893.16,8064.39 L 2276.17,7843.25 L 2276.17,7870.75 L 1905.06,8085.01 Z " />
<text x="0" y="0" stroke="none" fill="#ff0000" transform="matrix(0.0666667 0 0 0.0666667 51.8447 40.8)" font-style="normal" font-weight="normal" font-size="320px" font-family="Arial" >
O</text>
<path stroke="none" fill="#000000" transform="matrix(0.0666667 0 0 0.0666667 -91.6 -453)" d="M 2212.42,7442.08 L 2236.24,7442.08 L 2236.24,7886.93 L 2212.42,7886.93 L 2212.42,7442.08 Z " />
<path stroke="none" fill="#000000" transform="matrix(0.0666667 0 0 0.0666667 -91.6 -453)" d="M 2316.1,7442.08 L 2339.92,7442.08 L 2339.92,7886.93 L 2316.1,7886.93 L 2316.1,7442.08 Z " />
<path stroke="none" fill="#000000" transform="matrix(0.0666667 0 0 0.0666667 -91.6 -453)" d="M 3261.93,7287.87 L 3285.74,7274.13 L 3285.74,7850.13 L 3273.83,7857 L 3261.93,7850.13 L 3261.93,7287.87 Z " />
<text x="0" y="0" stroke="none" fill="#ff0000" transform="matrix(0.0666667 0 0 0.0666667 69.6938 21.6)" font-style="normal" font-weight="normal" font-size="320px" font-family="Arial" >
HO</text>
<path stroke="none" fill="#000000" transform="matrix(0.0666667 0 0 0.0666667 -91.6 -453)" d="M 2900.52,7079.21 L 2912.42,7058.59 L 3285.74,7274.13 L 3261.93,7287.87 L 2900.52,7079.21 Z " />
<text x="0" y="0" stroke="none" fill="#ff0000" transform="matrix(0.0666667 0 0 0.0666667 151.611 21.6)" font-style="normal" font-weight="normal" font-size="320px" font-family="Arial" >
O</text>
<path stroke="none" fill="#000000" transform="matrix(0.0666667 0 0 0.0666667 -91.6 -453)" d="M 3610.43,7013.06 L 3622.34,7033.68 L 3227.94,7261.38 L 3216.04,7240.76 L 3610.43,7013.06 Z " />
<path stroke="none" fill="#000000" transform="matrix(0.0666667 0 0 0.0666667 -91.6 -453)" d="M 3662.27,7102.85 L 3674.18,7123.47 L 3279.78,7351.17 L 3267.88,7330.55 L 3662.27,7102.85 Z " />
<text x="0" y="0" stroke="none" fill="#ff0000" transform="matrix(0.0666667 0 0 0.0666667 93.0105 116.292)" font-style="normal" font-weight="normal" font-size="320px" font-family="Arial" >
HO</text>
<path stroke="none" fill="#000000" transform="matrix(0.0666667 0 0 0.0666667 -91.6 -453)" d="M 3190.08,8286.2 L 3131.76,8270.57 L 3253.35,7882.57 L 3273.83,7857 L 3281.9,7875.41 L 3190.08,8286.2 Z " />
</svg>
