<?xml version="1.0" encoding="UTF-8" standalone="no"?>
<!-- Created with Inkscape (http://www.inkscape.org/) -->
<svg
   xmlns:svg="http://www.w3.org/2000/svg"
   xmlns="http://www.w3.org/2000/svg"
   version="1.0"
   width="440"
   height="260.20999"
   viewBox="0 0 1349.5 778.27"
   id="svg2"
   xml:space="preserve"><defs
   id="defs104" />
	
		<g
   transform="matrix(0.920075,0,0,0.920076,53.97402,39.5186)"
   id="レイヤー_1">
			<g
   id="g7">
				<text
   transform="translate(489.999,245.7969)"
   id="text9"><tspan
     x="0"
     y="0"
     style="font-size:100px;font-family:ArialMT"
     id="tspan11">O</tspan></text>

				<polygon
   points="332.5,318.801 323.5,331.301 305,327.302 249.003,211.799 251.503,206.799 260.502,213.298 332.5,318.801 "
   id="polygon13" />
				<polygon
   points="471.503,282.302 462.5,295.3 463.5,305.3 347.5,335.3 323.5,331.301 332.5,318.801 471.503,282.302 "
   id="polygon15" />
				<polygon
   points="592.001,324.299 601,331.301 597.001,334.802 477.5,312.8 462.5,295.3 471.503,282.302 592.001,324.299 "
   id="polygon17" />
				<polygon
   points="551,252.8 558.002,248.801 605,330.3 601,331.301 592.001,324.299 551,252.8 "
   id="polygon19" />
				<polygon
   points="389.501,247.302 389.501,243.298 391.503,238.801 481.503,215.3 483.5,222.8 389.501,247.302 "
   id="polygon21" />
				<polygon
   points="260.502,213.298 251.503,206.799 251,202.8 381.503,236.799 389.501,243.298 389.501,247.302 260.502,213.298 "
   id="polygon23" />
				<polygon
   points="605,429.797 597.001,429.797 597.001,334.802 601,331.301 605,330.3 605,429.797 "
   id="polygon25" />
				<text
   transform="translate(839.5015,513.7993)"
   id="text27"><tspan
     x="0"
     y="0"
     style="font-size:100px;font-family:ArialMT"
     id="tspan29">O</tspan></text>

				<polygon
   points="823.505,552.795 812.001,562.795 807.998,589.299 737.998,442.795 740,438.303 749.501,444.797 823.505,552.795 "
   id="polygon31" />
				<polygon
   points="952.001,552.795 956.005,562.795 967.5,572.795 816.005,572.795 812.001,562.795 823.505,552.795 952.001,552.795 "
   id="polygon33" />
				<rect
   width="16.493999"
   height="7.9980001"
   x="923.505"
   y="470.80301"
   id="rect35" /> 
				<polygon
   points="1025,470.803 1022.5,474.797 1013.505,478.801 972.001,478.801 972.001,470.803 1025,470.803 "
   id="polygon37" />
				<polygon
   points="749.501,444.797 740,438.303 744.003,435.295 834.501,459.299 832.5,466.799 749.501,444.797 "
   id="polygon39" />
				<polygon
   points="1013.505,478.801 1022.5,474.797 1022.5,482.795 967.5,572.795 956.005,562.795 960,536.799 1013.505,478.801 "
   id="polygon41" />
				<text
   transform="translate(917.0015,412.8003)"
   id="text43"><tspan
     x="0"
     y="0"
     style="font-size:100px;font-family:ArialMT"
     id="tspan45">OH</tspan></text>

				<polygon
   points="952.001,425.295 960,425.295 960,536.799 956.005,562.795 952.001,552.795 952.001,425.295 "
   id="polygon47" />
				<polygon
   points="1097.001,595.295 1092.5,603.303 1022.5,482.795 1022.5,474.797 1025,470.803 1097.001,595.295 "
   id="polygon49" />
				<text
   transform="translate(1199.502,638.2974)"
   id="text51"><tspan
     x="0"
     y="0"
     style="font-size:100px;font-family:ArialMT"
     id="tspan53">OH</tspan></text>

				<polygon
   points="1192.001,595.295 1192.001,603.303 1092.5,603.303 1097.001,595.295 1192.001,595.295 "
   id="polygon55" />
				<text
   transform="translate(773.0005,745.7974)"
   id="text57"><tspan
     x="0"
     y="0"
     style="font-size:100px;font-family:ArialMT"
     id="tspan59">OH</tspan></text>

				<polygon
   points="816.005,661.301 807.998,661.301 807.998,589.299 812.001,562.795 816.005,572.795 816.005,661.301 "
   id="polygon61" />
				<polygon
   points="736.005,291.799 744.003,296.799 744.003,435.295 740,438.303 736.005,435.295 736.005,291.799 "
   id="polygon63" />
				<text
   transform="translate(825.9976,261.2988)"
   id="text65"><tspan
     x="0"
     y="0"
     style="font-size:100px;font-family:ArialMT"
     id="tspan67">OH</tspan></text>

				<polygon
   points="820,243.298 824.003,250.3 744.003,296.799 736.005,291.799 820,243.298 "
   id="polygon69" />
				<text
   transform="translate(562.002,514.3013)"
   id="text71"><tspan
     x="0"
     y="0"
     style="font-size:100px;font-family:ArialMT"
     id="tspan73">O</tspan></text>

				<polygon
   points="645.502,467.795 643.5,460.295 736.005,435.295 740,438.303 737.998,442.795 645.502,467.795 "
   id="polygon75" />
				<text
   transform="translate(-9.765625e-4,283.2969)"
   id="text77"><tspan
     x="0"
     y="0"
     style="font-size:100px;font-family:ArialMT"
     id="tspan79">HO</tspan></text>

				<polygon
   points="155.502,236.799 153.5,228.801 251,202.8 251.503,206.799 249.003,211.799 155.502,236.799 "
   id="polygon81" />
				<text
   transform="translate(67.499,370.2998)"
   id="text83"><tspan
     x="0"
     y="0"
     style="font-size:100px;font-family:ArialMT"
     id="tspan85">HO</tspan></text>

				<polygon
   points="223.5,335.3 223.5,327.302 305,327.302 323.5,331.301 347.5,335.3 223.5,335.3 "
   id="polygon87" />
				<text
   transform="translate(422.499,458.7993)"
   id="text89"><tspan
     x="0"
     y="0"
     style="font-size:100px;font-family:ArialMT"
     id="tspan91">HO</tspan></text>

				<polygon
   points="514.501,377.302 507.5,381.301 463.5,305.3 462.5,295.3 477.5,312.8 514.501,377.302 "
   id="polygon93" />
				<polygon
   points="312.001,117.302 323.002,120.3 391.503,238.801 389.501,243.298 381.503,236.799 312.001,117.302 "
   id="polygon95" />
				<text
   transform="translate(403.498,85.7969)"
   id="text97"><tspan
     x="0"
     y="0"
     style="font-size:100px;font-family:ArialMT"
     id="tspan99">OH</tspan></text>

				<polygon
   points="397.5,67.8 401.503,74.802 323.002,120.3 312.001,117.302 397.5,67.8 "
   id="polygon101" />
			</g>
		</g>
	</svg>